# xmcd
#
# Track frame offsets:
#	150
#	16262
#	31122
#	47837
#	61355
#	81290
#	94354
#	109224
#	123636
#	140689
#	152596
#
# Disc length: 2424 seconds
#
# Revision: 1
# Processed by: cddbd v1.5.2PL0 Copyright (c) Steve Scherf et al.
# Submitted via: audiograbber 1.83.01
#
DISCID=9209760b
DTITLE=Albie Donnelly's Supercharge - Bad, Mad and Dangerous [CD-R]
DYEAR=1988
DGENRE=Rock
TTITLE0=Take Me To The River
TTITLE1=Fool For You
TTITLE2=Happy Birthday Baby
TTITLE3=Don't Be Surprised
TTITLE4=Why Can't You Be Wrong
TTITLE5=Boogie Thing
TTITLE6=First Taste Of Your Love
TTITLE7=Bad, Mad And Dangerous
TTITLE8=I Can't Do This No More
TTITLE9=Good Night My Love
TTITLE10=Happy Birthday Baby
EXTD=
EXTT0=
EXTT1=
EXTT2=
EXTT3=
EXTT4=
EXTT5=
EXTT6=
EXTT7=
EXTT8=
EXTT9=
EXTT10=
PLAYORDER=
